<svg xmlns="http://www.w3.org/2000/svg" xml:space="preserve" width="500" height="500"><path d="M520.58 104.42h375v375h-375Z" style="fill:#e20134;fill-opacity:1;fill-rule:nonzero;stroke:none;stroke-width:.157009" transform="matrix(1.33333 0 0 -1.33333 -694.107 639.227)"/><path d="M708.08 164.603c-62.133 0-112.5 47.79-112.5 106.738 0 7.234.765 14.297 2.212 21.128h63.546a46.804 46.804 0 0 1-5.026-21.128c0-27.128 23.177-49.116 51.768-49.116a54.1 54.1 0 0 1 18.11 3.093v-59.33a119.133 119.133 0 0 0-18.11-1.385m109.86 83.689H753.8c3.857 6.872 6.048 14.717 6.048 23.049 0 27.127-23.177 49.116-51.768 49.116-5.35 0-10.51-.77-15.366-2.2v100.98h55.701v-48.234c42.202-15.383 72.165-54.2 72.165-99.662 0-7.916-.919-15.624-2.64-23.049" style="fill:#fff;fill-opacity:1;fill-rule:nonzero;stroke:none;stroke-width:.415743" transform="matrix(1.33333 0 0 -1.33333 -694.107 639.227)"/></svg>