<svg xmlns="http://www.w3.org/2000/svg" xml:space="preserve" width="500" height="500"><path d="M451.074 123.56h375v375h-375Z" style="fill:#762b84;fill-opacity:1;fill-rule:nonzero;stroke:none;stroke-width:.157009" transform="matrix(1.33333 0 0 -1.33333 -601.432 664.748)"/><path d="M638.574 183.744c-62.133 0-112.5 47.79-112.5 106.738 0 7.234.765 14.297 2.211 21.128h63.547a46.804 46.804 0 0 1-5.027-21.128c0-27.128 23.178-49.116 51.769-49.116a54.1 54.1 0 0 1 18.11 3.093v-59.33a119.133 119.133 0 0 0-18.11-1.385m109.86 83.689h-64.141c3.858 6.872 6.049 14.717 6.049 23.049 0 27.127-23.178 49.115-51.768 49.115-5.35 0-10.51-.769-15.366-2.199v100.98h55.701v-48.235c42.202-15.386 72.165-54.2 72.165-99.661 0-7.916-.92-15.624-2.64-23.05" style="fill:#fff;fill-opacity:1;fill-rule:nonzero;stroke:none;stroke-width:.415743" transform="matrix(1.33333 0 0 -1.33333 -601.432 664.748)"/></svg>