<svg xmlns="http://www.w3.org/2000/svg" width="100mm" height="100mm" viewBox="0 0 100 100"><g style="stroke-width:1.01588368"><path d="M3033.925 596.712h1280v-1280h-1280z" style="fill:#414141;fill-opacity:1;fill-rule:nonzero;stroke:none;stroke-width:1.01588368" transform="matrix(.07813 0 0 .07813 -237.025 53.382)"/><g style="stroke-width:1.01588368"><path d="M3807.675-299.538c0 73.867-59.883 133.75-133.75 133.75-73.868 0-133.75-59.883-133.75-133.75 0-73.868 59.882-133.75 133.75-133.75 73.867 0 133.75 59.882 133.75 133.75M3807.675 212.962c0 73.867-59.883 133.75-133.75 133.75-73.868 0-133.75-59.883-133.75-133.75 0-73.868 59.882-133.75 133.75-133.75 73.867 0 133.75 59.882 133.75 133.75" style="fill:#ffc300;fill-opacity:1;fill-rule:nonzero;stroke:none;stroke-width:1.01588368" transform="matrix(.07813 0 0 .07813 -237.025 53.382)"/></g></g></svg>